<svg width="26" height="26" viewBox="0 0 26 26" fill="none" xmlns="http://www.w3.org/2000/svg">
<path d="M7 16H4C3.44772 16 3 15.5523 3 15V12C3 11.4477 3.44772 11 4 11H7C7.55228 11 8 11.4477 8 12V15C8 15.5523 7.55229 16 7 16Z" stroke="#548677"/>
<path d="M7 23H4C3.44772 23 3 22.5523 3 22V19C3 18.4477 3.44772 18 4 18H7C7.55228 18 8 18.4477 8 19V22C8 22.5523 7.55229 23 7 23Z" stroke="#548677"/>
<path d="M7 9H4C3.44772 9 3 8.55229 3 8V5C3 4.44772 3.44772 4 4 4H7C7.55228 4 8 4.44772 8 5V8C8 8.55228 7.55229 9 7 9Z" stroke="#548677"/>
<path d="M22 16H12C11.4477 16 11 15.5523 11 15V12C11 11.4477 11.4477 11 12 11H22C22.5523 11 23 11.4477 23 12V15C23 15.5523 22.5523 16 22 16Z" stroke="#548677"/>
<path d="M22 23H12C11.4477 23 11 22.5523 11 22V19C11 18.4477 11.4477 18 12 18H22C22.5523 18 23 18.4477 23 19V22C23 22.5523 22.5523 23 22 23Z" stroke="#548677"/>
<path d="M22 9H12C11.4477 9 11 8.55229 11 8V5C11 4.44772 11.4477 4 12 4H22C22.5523 4 23 4.44772 23 5V8C23 8.55228 22.5523 9 22 9Z" stroke="#548677"/>
</svg>
