<svg width="26" height="26" viewBox="0 0 26 26" fill="none" xmlns="http://www.w3.org/2000/svg">
<path fill-rule="evenodd" clip-rule="evenodd" d="M20.0848 5.73218C19.6697 5.31707 18.9966 5.31707 18.5815 5.73218L6.47444 17.8393L5.91256 20.0868L8.16007 19.5249L20.2671 7.41781C20.6823 7.0027 20.6823 6.32967 20.2671 5.91456L20.0848 5.73218ZM17.0783 4.22893C18.3236 2.98359 20.3427 2.98359 21.588 4.22893L21.7704 4.4113C23.0157 5.65664 23.0157 7.67573 21.7704 8.92107L9.45514 21.2363C9.31891 21.3726 9.14822 21.4692 8.96131 21.5159L4.70946 22.5789C4.34723 22.6695 3.96405 22.5633 3.70003 22.2993C3.43601 22.0353 3.32987 21.6521 3.42043 21.2899L4.48339 17.038C4.53012 16.8511 4.62676 16.6804 4.76299 16.5442L17.0783 4.22893Z" fill="#B7BDCE"/>
<path fill-rule="evenodd" clip-rule="evenodd" d="M15.3914 5.91485C15.8065 5.49974 16.4796 5.49974 16.8947 5.91485L20.0836 9.10374C20.4987 9.51885 20.4987 10.1919 20.0836 10.607C19.6684 11.0221 18.9954 11.0221 18.5803 10.607L15.3914 7.41811C14.9763 7.00299 14.9763 6.32996 15.3914 5.91485Z" fill="#B7BDCE"/>
<path fill-rule="evenodd" clip-rule="evenodd" d="M12.9551 21.5493C12.9551 20.9622 13.431 20.4863 14.018 20.4863H22.5217C23.1088 20.4863 23.5847 20.9622 23.5847 21.5493C23.5847 22.1363 23.1088 22.6123 22.5217 22.6123H14.018C13.431 22.6123 12.9551 22.1363 12.9551 21.5493Z" fill="#B7BDCE"/>
</svg>
