<svg width="41" height="41" viewBox="0 0 41 41" fill="none" xmlns="http://www.w3.org/2000/svg">
<path fill-rule="evenodd" clip-rule="evenodd" d="M3.99219 10.8923C3.99219 9.98097 4.73097 9.24219 5.6423 9.24219H35.3444C36.2557 9.24219 36.9945 9.98097 36.9945 10.8923V27.3934C36.9945 30.1274 34.7781 32.3438 32.0441 32.3438H8.94253C6.20853 32.3438 3.99219 30.1274 3.99219 27.3934V10.8923ZM7.29242 12.5424V27.3934C7.29242 28.3048 8.0312 29.0436 8.94253 29.0436H32.0441C32.9555 29.0436 33.6943 28.3048 33.6943 27.3934V12.5424H7.29242Z" fill="#B7BDCE"/>
<path fill-rule="evenodd" clip-rule="evenodd" d="M20.493 17.4926C18.6704 17.4926 17.1928 18.9702 17.1928 20.7928C17.1928 22.6155 18.6704 24.0931 20.493 24.0931C22.3157 24.0931 23.7933 22.6155 23.7933 20.7928C23.7933 18.9702 22.3157 17.4926 20.493 17.4926ZM13.8926 20.7928C13.8926 17.1475 16.8477 14.1924 20.493 14.1924C24.1384 14.1924 27.0935 17.1475 27.0935 20.7928C27.0935 24.4382 24.1384 27.3933 20.493 27.3933C16.8477 27.3933 13.8926 24.4382 13.8926 20.7928Z" fill="#B7BDCE"/>
<path fill-rule="evenodd" clip-rule="evenodd" d="M30.3926 5.94113C30.3926 6.85246 29.6538 7.59124 28.7425 7.59124L27.0923 7.59124C26.181 7.59124 25.4422 6.85246 25.4422 5.94113C25.4422 5.0298 26.181 4.29102 27.0924 4.29102L28.7425 4.29102C29.6538 4.29102 30.3926 5.0298 30.3926 5.94113Z" fill="#B7BDCE"/>
</svg>
