<svg width="24" height="24" viewBox="0 0 24 24" fill="none" xmlns="http://www.w3.org/2000/svg">
<path fill-rule="evenodd" clip-rule="evenodd" d="M14 4.94969C14 5.96312 13.1793 6.79297 12.1641 6.79297C11.1488 6.79297 10.3281 5.97965 10.3281 4.96621L10.3281 4.94969C10.3281 3.93625 11.1488 3.11375 12.1641 3.11375C13.1793 3.11375 14 3.93625 14 4.94969Z" fill="#B7BDCE"/>
<path fill-rule="evenodd" clip-rule="evenodd" d="M14 12.3091C14 13.3225 13.1793 14.1523 12.1641 14.1523C11.1488 14.1523 10.3281 13.3409 10.3281 12.3256L10.3281 12.3091C10.3281 11.2956 11.1488 10.4731 12.1641 10.4731C13.1793 10.4731 14 11.2956 14 12.3091Z" fill="#B7BDCE"/>
<path fill-rule="evenodd" clip-rule="evenodd" d="M14 19.6704C14 20.6838 13.1793 21.5137 12.1641 21.5137C11.1488 21.5137 10.3281 20.7004 10.3281 19.6869L10.3281 19.6704C10.3281 18.657 11.1488 17.8345 12.1641 17.8345C13.1793 17.8345 14 18.657 14 19.6704Z" fill="#B7BDCE"/>
</svg>
