<svg width="354" height="34" viewBox="0 0 354 34" fill="none" xmlns="http://www.w3.org/2000/svg">
<path d="M366.5 17C366.5 17.3833 366.284 17.8379 365.689 18.363C365.095 18.8855 364.184 19.424 362.94 19.968C360.456 21.0541 356.762 22.1133 351.965 23.128C342.38 25.1557 328.491 26.9852 311.306 28.5228C276.941 31.5975 229.457 33.5 177 33.5C124.543 33.5 77.0585 31.5975 42.6943 28.5228C25.5094 26.9852 11.6201 25.1557 2.03462 23.128C-2.76214 22.1133 -6.45554 21.0541 -8.93956 19.968C-10.1835 19.424 -11.0954 18.8855 -11.6885 18.363C-12.2845 17.8379 -12.5 17.3833 -12.5 17C-12.5 16.6167 -12.2845 16.1621 -11.6885 15.637C-11.0954 15.1145 -10.1835 14.576 -8.93956 14.032C-6.45554 12.9459 -2.76214 11.8867 2.03462 10.872C11.6201 8.8443 25.5094 7.01479 42.6943 5.4772C77.0585 2.4025 124.543 0.5 177 0.5C229.457 0.5 276.941 2.4025 311.306 5.4772C328.491 7.01479 342.38 8.8443 351.965 10.872C356.762 11.8867 360.456 12.9459 362.94 14.032C364.184 14.576 365.095 15.1145 365.689 15.637C366.284 16.1621 366.5 16.6167 366.5 17Z" stroke="url(#paint0_linear_1509_51594)"/>
<defs>
<linearGradient id="paint0_linear_1509_51594" x1="177" y1="0" x2="177" y2="25.789" gradientUnits="userSpaceOnUse">
<stop stop-color="#B7BDCE"/>
<stop offset="1" stop-color="#B7BDCE" stop-opacity="0"/>
</linearGradient>
</defs>
</svg>
