<svg width="18" height="25" viewBox="0 0 18 25" fill="none" xmlns="http://www.w3.org/2000/svg">
  <path fill-rule="evenodd" clip-rule="evenodd"
    d="M17.2166 14.1855C16.9923 14.5484 16.5962 14.7692 16.1696 14.7692L2.63116 14.7692L2.63116 23.3846C2.63116 24.0643 2.08012 24.6154 1.40039 24.6154C0.720652 24.6154 0.169619 24.0643 0.169619 23.3846L0.169619 1.23077C0.169619 0.551033 0.720652 -7.29095e-07 1.40039 -6.99382e-07C2.08012 -6.6967e-07 2.63116 0.551033 2.63116 1.23077L2.63116 2.46154L16.1696 2.46154C16.5962 2.46154 16.9923 2.6824 17.2166 3.04525C17.4408 3.4081 17.4612 3.8612 17.2705 4.24272L15.0841 8.61538L17.2705 12.988C17.4612 13.3696 17.4408 13.8227 17.2166 14.1855ZM2.63116 4.92308L2.63116 12.3077L14.1782 12.3077L12.6072 9.1658C12.434 8.8193 12.434 8.41146 12.6072 8.06497L14.1782 4.92308L2.63116 4.92308Z"
    fill="#326E5B" />
</svg>
