<svg width="299" height="41" viewBox="0 0 299 41" fill="none" xmlns="http://www.w3.org/2000/svg">
<path d="M6.56328 8.65483L9.51782 1.09091H11.819L7.5647 12H5.55476L1.39993 1.09091H3.69396L6.56328 8.65483ZM3.00504 1.09091V12H0.114415V1.09091H3.00504ZM10.2707 12V1.09091H13.1258V12H10.2707ZM19.4768 12.206C18.7807 12.206 18.1605 12.0852 17.616 11.8438C17.0715 11.5975 16.6406 11.2353 16.3234 10.7571C16.0109 10.2741 15.8546 9.67282 15.8546 8.95312C15.8546 8.34706 15.9659 7.83807 16.1884 7.42614C16.411 7.0142 16.714 6.68277 17.0975 6.43182C17.481 6.18087 17.9166 5.99148 18.4043 5.86364C18.8968 5.7358 19.4129 5.64583 19.9526 5.59375C20.5871 5.52746 21.0985 5.46591 21.4867 5.40909C21.875 5.34754 22.1567 5.25758 22.3319 5.1392C22.5071 5.02083 22.5947 4.84564 22.5947 4.61364V4.57102C22.5947 4.12121 22.4526 3.7732 22.1685 3.52699C21.8892 3.28078 21.4915 3.15767 20.9754 3.15767C20.4308 3.15767 19.9976 3.27841 19.6756 3.51989C19.3537 3.75663 19.1406 4.05492 19.0364 4.41477L16.2381 4.1875C16.3802 3.52462 16.6595 2.9517 17.0762 2.46875C17.4929 1.98106 18.0303 1.60701 18.6884 1.34659C19.3513 1.08144 20.1183 0.948864 20.9896 0.948864C21.5956 0.948864 22.1756 1.01989 22.7296 1.16193C23.2883 1.30398 23.7831 1.52415 24.214 1.82244C24.6496 2.12074 24.9929 2.50426 25.2438 2.97301C25.4948 3.43703 25.6202 3.99337 25.6202 4.64205V12H22.7509V10.4872H22.6657C22.4905 10.8281 22.2561 11.1288 21.9626 11.3892C21.669 11.6449 21.3163 11.8461 20.9043 11.9929C20.4924 12.1349 20.0165 12.206 19.4768 12.206ZM20.3432 10.1179C20.7883 10.1179 21.1813 10.0303 21.5222 9.85511C21.8631 9.67519 22.1307 9.43371 22.3248 9.13068C22.5189 8.82765 22.616 8.48437 22.616 8.10085V6.94318C22.5213 7.00473 22.3911 7.06155 22.2254 7.11364C22.0644 7.16098 21.8821 7.20597 21.6785 7.24858C21.4749 7.28646 21.2713 7.32197 21.0677 7.35511C20.8641 7.38352 20.6794 7.40956 20.5137 7.43324C20.1586 7.48532 19.8485 7.56818 19.5833 7.68182C19.3182 7.79545 19.1122 7.94934 18.9654 8.14347C18.8186 8.33286 18.7452 8.5696 18.7452 8.85369C18.7452 9.26562 18.8944 9.58049 19.1927 9.7983C19.4957 10.0114 19.8792 10.1179 20.3432 10.1179ZM28.8675 16.0909V1.09091H31.8505V2.9233H31.9854C32.118 2.62973 32.3098 2.33144 32.5607 2.02841C32.8164 1.72064 33.1478 1.46496 33.555 1.26136C33.967 1.05303 34.4783 0.948864 35.0891 0.948864C35.8846 0.948864 36.6185 1.1572 37.2908 1.57386C37.9632 1.9858 38.5006 2.60843 38.903 3.44176C39.3055 4.27036 39.5067 5.30966 39.5067 6.55966C39.5067 7.77652 39.3102 8.80398 38.9173 9.64205C38.529 10.4754 37.9987 11.1075 37.3263 11.5384C36.6587 11.9645 35.9106 12.1776 35.082 12.1776C34.4949 12.1776 33.9954 12.0805 33.5834 11.8864C33.1763 11.6922 32.8424 11.4484 32.582 11.1548C32.3216 10.8565 32.1227 10.5559 31.9854 10.2528H31.8931V16.0909H28.8675ZM31.8292 6.54545C31.8292 7.19413 31.9191 7.75994 32.0991 8.2429C32.279 8.72585 32.5394 9.10227 32.8803 9.37216C33.2212 9.63731 33.6355 9.76989 34.1232 9.76989C34.6156 9.76989 35.0323 9.63494 35.3732 9.36506C35.7141 9.09044 35.9722 8.71165 36.1474 8.22869C36.3273 7.741 36.4173 7.17992 36.4173 6.54545C36.4173 5.91572 36.3297 5.36174 36.1545 4.88352C35.9793 4.4053 35.7212 4.03125 35.3803 3.76136C35.0394 3.49148 34.6204 3.35653 34.1232 3.35653C33.6308 3.35653 33.2141 3.48674 32.8732 3.74716C32.537 4.00758 32.279 4.37689 32.0991 4.85511C31.9191 5.33333 31.8292 5.89678 31.8292 6.54545ZM42.4238 12V1.09091H45.4494V5.32386H46.3016L49.2704 1.09091H52.8215L48.965 6.50284L52.8641 12H49.2704L46.5786 8.12926H45.4494V12H42.4238ZM59.5649 12.2131C58.4428 12.2131 57.4768 11.9858 56.6672 11.5312C55.8623 11.072 55.242 10.4233 54.8064 9.58523C54.3708 8.74242 54.153 7.74574 54.153 6.59517C54.153 5.47301 54.3708 4.48816 54.8064 3.64062C55.242 2.79309 55.8552 2.13258 56.6459 1.65909C57.4413 1.18561 58.3741 0.948864 59.4442 0.948864C60.1639 0.948864 60.8338 1.06487 61.4541 1.29688C62.0791 1.52415 62.6236 1.86742 63.0876 2.3267C63.5564 2.78598 63.921 3.36364 64.1814 4.05966C64.4418 4.75095 64.572 5.56061 64.572 6.48864V7.3196H55.3604V5.4446H61.724C61.724 5.009 61.6293 4.62311 61.4399 4.28693C61.2505 3.95076 60.9877 3.68797 60.6516 3.49858C60.3201 3.30445 59.9342 3.20739 59.4939 3.20739C59.0346 3.20739 58.6274 3.31392 58.2723 3.52699C57.9219 3.73532 57.6473 4.01705 57.4484 4.37216C57.2496 4.72254 57.1478 5.11316 57.143 5.54403V7.3267C57.143 7.86648 57.2425 8.33286 57.4413 8.72585C57.6449 9.11884 57.9314 9.42188 58.3007 9.63494C58.67 9.84801 59.108 9.95455 59.6146 9.95455C59.9508 9.95455 60.2586 9.9072 60.5379 9.8125C60.8173 9.7178 61.0564 9.57576 61.2553 9.38636C61.4541 9.19697 61.6056 8.96496 61.7098 8.69034L64.5081 8.875C64.366 9.54735 64.0749 10.1345 63.6345 10.6364C63.1989 11.1335 62.6355 11.5218 61.9442 11.8011C61.2576 12.0758 60.4645 12.2131 59.5649 12.2131ZM66.6048 3.47017V1.09091H76.4912V3.47017H72.9756V12H70.092V3.47017H66.6048ZM82.116 8.00852L86.0435 1.09091H89.0265V12H86.143V5.06108L82.2296 12H79.2254V1.09091H82.116V8.00852ZM99.9442 5.33807V7.71733H94.2482V5.33807H99.9442ZM95.2425 1.09091V12H92.3519V1.09091H95.2425ZM101.841 1.09091V12H98.9712V1.09091H101.841ZM112.559 1.09091V3.47017H108.028V12H105.088V1.09091H112.559ZM120.063 12.2273C119.078 12.2273 118.214 11.9929 117.47 11.5241C116.732 11.0554 116.154 10.3996 115.737 9.55682C115.326 8.71402 115.12 7.72917 115.12 6.60227C115.12 5.46591 115.326 4.47396 115.737 3.62642C116.154 2.77888 116.732 2.12074 117.47 1.65199C118.214 1.18324 119.078 0.948864 120.063 0.948864C121.048 0.948864 121.909 1.18324 122.648 1.65199C123.391 2.12074 123.969 2.77888 124.381 3.62642C124.798 4.47396 125.006 5.46591 125.006 6.60227C125.006 7.72917 124.798 8.71402 124.381 9.55682C123.969 10.3996 123.391 11.0554 122.648 11.5241C121.909 11.9929 121.048 12.2273 120.063 12.2273ZM120.063 10.7216C120.811 10.7216 121.426 10.5298 121.909 10.1463C122.392 9.76278 122.75 9.25852 122.982 8.63352C123.214 8.00852 123.33 7.33144 123.33 6.60227C123.33 5.87311 123.214 5.19366 122.982 4.56392C122.75 3.93419 122.392 3.42519 121.909 3.03693C121.426 2.64867 120.811 2.45455 120.063 2.45455C119.315 2.45455 118.699 2.64867 118.216 3.03693C117.733 3.42519 117.376 3.93419 117.144 4.56392C116.912 5.19366 116.796 5.87311 116.796 6.60227C116.796 7.33144 116.912 8.00852 117.144 8.63352C117.376 9.25852 117.733 9.76278 118.216 10.1463C118.699 10.5298 119.315 10.7216 120.063 10.7216ZM128.465 16.0909V1.09091H130.084V2.82386H130.283C130.406 2.63447 130.576 2.39299 130.794 2.09943C131.017 1.80114 131.334 1.53598 131.746 1.30398C132.162 1.06723 132.726 0.948864 133.436 0.948864C134.355 0.948864 135.164 1.1785 135.865 1.63778C136.566 2.09706 137.113 2.74811 137.506 3.59091C137.899 4.43371 138.095 5.42803 138.095 6.57386C138.095 7.72917 137.899 8.73059 137.506 9.57812C137.113 10.4209 136.568 11.0743 135.872 11.5384C135.176 11.9976 134.374 12.2273 133.465 12.2273C132.764 12.2273 132.203 12.1113 131.781 11.8793C131.36 11.6425 131.036 11.375 130.808 11.0767C130.581 10.7737 130.406 10.5227 130.283 10.3239H130.141V16.0909H128.465ZM130.112 6.54545C130.112 7.36932 130.233 8.09612 130.474 8.72585C130.716 9.35085 131.069 9.84091 131.533 10.196C131.997 10.5464 132.565 10.7216 133.237 10.7216C133.938 10.7216 134.523 10.5369 134.992 10.1676C135.465 9.79356 135.82 9.29167 136.057 8.66193C136.298 8.02746 136.419 7.32197 136.419 6.54545C136.419 5.77841 136.301 5.08712 136.064 4.47159C135.832 3.85133 135.479 3.36127 135.006 3.00142C134.537 2.63684 133.948 2.45455 133.237 2.45455C132.555 2.45455 131.983 2.62737 131.519 2.97301C131.055 3.31392 130.704 3.79214 130.467 4.40767C130.231 5.01847 130.112 5.73106 130.112 6.54545ZM143.228 9.52841L148.484 1.09091H150.416V12H148.74V3.5625L143.512 12H141.552V1.09091H143.228V9.52841ZM158.96 12.2273C157.908 12.2273 157.002 11.9953 156.239 11.5312C155.482 11.0625 154.897 10.4091 154.485 9.57102C154.078 8.72822 153.874 7.74811 153.874 6.63068C153.874 5.51326 154.078 4.52841 154.485 3.67614C154.897 2.81913 155.47 2.15152 156.204 1.6733C156.942 1.19034 157.804 0.948864 158.789 0.948864C159.357 0.948864 159.918 1.04356 160.472 1.23295C161.026 1.42235 161.531 1.73011 161.985 2.15625C162.44 2.57765 162.802 3.13636 163.072 3.83239C163.342 4.52841 163.477 5.38542 163.477 6.40341V7.11364H155.067V5.66477H161.772C161.772 5.04924 161.649 4.5 161.403 4.01705C161.161 3.53409 160.816 3.15294 160.366 2.87358C159.921 2.59422 159.395 2.45455 158.789 2.45455C158.121 2.45455 157.544 2.62026 157.056 2.9517C156.573 3.27841 156.201 3.70455 155.941 4.23011C155.681 4.75568 155.55 5.31913 155.55 5.92045V6.88636C155.55 7.71023 155.692 8.40862 155.977 8.98153C156.265 9.54972 156.665 9.98295 157.177 10.2812C157.688 10.5748 158.282 10.7216 158.96 10.7216C159.4 10.7216 159.798 10.66 160.153 10.5369C160.513 10.4091 160.823 10.2197 161.083 9.96875C161.344 9.71307 161.545 9.39583 161.687 9.01705L163.306 9.47159C163.136 10.0208 162.849 10.5038 162.447 10.9205C162.044 11.3324 161.547 11.6544 160.955 11.8864C160.363 12.1136 159.698 12.2273 158.96 12.2273ZM174.227 5.77841V7.34091H168.205V5.77841H174.227ZM168.602 1.09091V12H166.926V1.09091H168.602ZM175.506 1.09091V12H173.83V1.09091H175.506ZM177.983 2.65341V1.09091H186.846V2.65341H183.267V12H181.59V2.65341H177.983ZM191.867 9.52841L197.123 1.09091H199.055V12H197.379V3.5625L192.151 12H190.191V1.09091H191.867V9.52841ZM203.025 16.0909V1.09091H204.644V2.82386H204.843C204.966 2.63447 205.136 2.39299 205.354 2.09943C205.577 1.80114 205.894 1.53598 206.306 1.30398C206.723 1.06723 207.286 0.948864 207.996 0.948864C208.915 0.948864 209.725 1.1785 210.425 1.63778C211.126 2.09706 211.673 2.74811 212.066 3.59091C212.459 4.43371 212.655 5.42803 212.655 6.57386C212.655 7.72917 212.459 8.73059 212.066 9.57812C211.673 10.4209 211.128 11.0743 210.432 11.5384C209.736 11.9976 208.934 12.2273 208.025 12.2273C207.324 12.2273 206.763 12.1113 206.341 11.8793C205.92 11.6425 205.596 11.375 205.368 11.0767C205.141 10.7737 204.966 10.5227 204.843 10.3239H204.701V16.0909H203.025ZM204.672 6.54545C204.672 7.36932 204.793 8.09612 205.035 8.72585C205.276 9.35085 205.629 9.84091 206.093 10.196C206.557 10.5464 207.125 10.7216 207.797 10.7216C208.498 10.7216 209.083 10.5369 209.552 10.1676C210.025 9.79356 210.38 9.29167 210.617 8.66193C210.859 8.02746 210.979 7.32197 210.979 6.54545C210.979 5.77841 210.861 5.08712 210.624 4.47159C210.392 3.85133 210.039 3.36127 209.566 3.00142C209.097 2.63684 208.508 2.45455 207.797 2.45455C207.116 2.45455 206.543 2.62737 206.079 2.97301C205.615 3.31392 205.264 3.79214 205.028 4.40767C204.791 5.01847 204.672 5.73106 204.672 6.54545ZM220.544 12.2273C219.559 12.2273 218.695 11.9929 217.952 11.5241C217.213 11.0554 216.635 10.3996 216.219 9.55682C215.807 8.71402 215.601 7.72917 215.601 6.60227C215.601 5.46591 215.807 4.47396 216.219 3.62642C216.635 2.77888 217.213 2.12074 217.952 1.65199C218.695 1.18324 219.559 0.948864 220.544 0.948864C221.529 0.948864 222.391 1.18324 223.129 1.65199C223.873 2.12074 224.45 2.77888 224.862 3.62642C225.279 4.47396 225.487 5.46591 225.487 6.60227C225.487 7.72917 225.279 8.71402 224.862 9.55682C224.45 10.3996 223.873 11.0554 223.129 11.5241C222.391 11.9929 221.529 12.2273 220.544 12.2273ZM220.544 10.7216C221.292 10.7216 221.908 10.5298 222.391 10.1463C222.874 9.76278 223.231 9.25852 223.463 8.63352C223.695 8.00852 223.811 7.33144 223.811 6.60227C223.811 5.87311 223.695 5.19366 223.463 4.56392C223.231 3.93419 222.874 3.42519 222.391 3.03693C221.908 2.64867 221.292 2.45455 220.544 2.45455C219.796 2.45455 219.18 2.64867 218.697 3.03693C218.214 3.42519 217.857 3.93419 217.625 4.56392C217.393 5.19366 217.277 5.87311 217.277 6.60227C217.277 7.33144 217.393 8.00852 217.625 8.63352C217.857 9.25852 218.214 9.76278 218.697 10.1463C219.18 10.5298 219.796 10.7216 220.544 10.7216ZM228.946 12V1.09091H233.406C234.58 1.09091 235.513 1.35606 236.204 1.88636C236.896 2.41667 237.241 3.11742 237.241 3.98864C237.241 4.65152 237.045 5.16525 236.652 5.52983C236.259 5.88968 235.755 6.13352 235.139 6.26136C235.541 6.31818 235.932 6.46023 236.311 6.6875C236.694 6.91477 237.012 7.22727 237.263 7.625C237.514 8.01799 237.639 8.50095 237.639 9.07386C237.639 9.63258 237.497 10.1321 237.213 10.5724C236.929 11.0128 236.522 11.3608 235.991 11.6165C235.461 11.8722 234.826 12 234.088 12H228.946ZM230.537 10.4659H234.088C234.666 10.4659 235.118 10.3286 235.444 10.054C235.771 9.77936 235.934 9.4053 235.934 8.93182C235.934 8.36837 235.771 7.92566 235.444 7.60369C235.118 7.27699 234.666 7.11364 234.088 7.11364H230.537V10.4659ZM230.537 5.66477H233.406C233.856 5.66477 234.242 5.60322 234.564 5.48011C234.886 5.35227 235.132 5.17235 235.302 4.94034C235.478 4.7036 235.565 4.42424 235.565 4.10227C235.565 3.64299 235.373 3.28314 234.99 3.02273C234.606 2.75758 234.078 2.625 233.406 2.625H230.537V5.66477ZM244.287 12.2557C243.595 12.2557 242.968 12.1255 242.404 11.8651C241.841 11.5999 241.394 11.2188 241.062 10.7216C240.731 10.2197 240.565 9.61364 240.565 8.90341C240.565 8.27841 240.688 7.77178 240.934 7.38352C241.18 6.99053 241.51 6.68276 241.921 6.46023C242.333 6.23769 242.788 6.07197 243.285 5.96307C243.787 5.84943 244.291 5.75947 244.798 5.69318C245.461 5.60795 245.998 5.54403 246.41 5.50142C246.827 5.45407 247.13 5.37595 247.319 5.26705C247.513 5.15814 247.61 4.96875 247.61 4.69886V4.64205C247.61 3.94129 247.419 3.39678 247.035 3.00852C246.656 2.62027 246.081 2.42614 245.309 2.42614C244.509 2.42614 243.882 2.60133 243.427 2.9517C242.973 3.30208 242.653 3.67614 242.468 4.07386L240.877 3.50568C241.162 2.8428 241.54 2.3267 242.014 1.95739C242.492 1.58333 243.013 1.32292 243.576 1.17614C244.144 1.02462 244.703 0.948864 245.252 0.948864C245.603 0.948864 246.005 0.991477 246.46 1.0767C246.919 1.1572 247.362 1.32528 247.788 1.58097C248.219 1.83665 248.576 2.22254 248.86 2.73864C249.144 3.25473 249.287 3.94602 249.287 4.8125V12H247.61V10.5227H247.525C247.412 10.7595 247.222 11.0128 246.957 11.2827C246.692 11.5526 246.339 11.7822 245.899 11.9716C245.458 12.161 244.921 12.2557 244.287 12.2557ZM244.542 10.75C245.205 10.75 245.764 10.6198 246.218 10.3594C246.678 10.099 247.023 9.76278 247.255 9.35085C247.492 8.93892 247.61 8.50568 247.61 8.05114V6.51705C247.539 6.60227 247.383 6.6804 247.142 6.75142C246.905 6.81771 246.63 6.87689 246.318 6.92898C246.01 6.97633 245.709 7.01894 245.416 7.05682C245.127 7.08996 244.893 7.11837 244.713 7.14205C244.277 7.19886 243.87 7.29119 243.491 7.41903C243.117 7.54214 242.814 7.72917 242.582 7.98011C242.355 8.22633 242.241 8.5625 242.241 8.98864C242.241 9.57102 242.456 10.0114 242.887 10.3097C243.323 10.6032 243.875 10.75 244.542 10.75ZM260.547 5.77841V7.34091H254.524V5.77841H260.547ZM254.922 1.09091V12H253.246V1.09091H254.922ZM261.825 1.09091V12H260.149V1.09091H261.825ZM273.088 5.77841V7.34091H267.065V5.77841H273.088ZM267.463 1.09091V12H265.786V1.09091H267.463ZM274.366 1.09091V12H272.69V1.09091H274.366ZM281.537 12.2557C280.846 12.2557 280.219 12.1255 279.655 11.8651C279.092 11.5999 278.644 11.2188 278.313 10.7216C277.981 10.2197 277.816 9.61364 277.816 8.90341C277.816 8.27841 277.939 7.77178 278.185 7.38352C278.431 6.99053 278.76 6.68276 279.172 6.46023C279.584 6.23769 280.039 6.07197 280.536 5.96307C281.038 5.84943 281.542 5.75947 282.049 5.69318C282.712 5.60795 283.249 5.54403 283.661 5.50142C284.078 5.45407 284.381 5.37595 284.57 5.26705C284.764 5.15814 284.861 4.96875 284.861 4.69886V4.64205C284.861 3.94129 284.669 3.39678 284.286 3.00852C283.907 2.62027 283.332 2.42614 282.56 2.42614C281.76 2.42614 281.132 2.60133 280.678 2.9517C280.223 3.30208 279.904 3.67614 279.719 4.07386L278.128 3.50568C278.412 2.8428 278.791 2.3267 279.265 1.95739C279.743 1.58333 280.264 1.32292 280.827 1.17614C281.395 1.02462 281.954 0.948864 282.503 0.948864C282.854 0.948864 283.256 0.991477 283.711 1.0767C284.17 1.1572 284.613 1.32528 285.039 1.58097C285.47 1.83665 285.827 2.22254 286.111 2.73864C286.395 3.25473 286.537 3.94602 286.537 4.8125V12H284.861V10.5227H284.776C284.662 10.7595 284.473 11.0128 284.208 11.2827C283.943 11.5526 283.59 11.7822 283.15 11.9716C282.709 12.161 282.172 12.2557 281.537 12.2557ZM281.793 10.75C282.456 10.75 283.015 10.6198 283.469 10.3594C283.928 10.099 284.274 9.76278 284.506 9.35085C284.743 8.93892 284.861 8.50568 284.861 8.05114V6.51705C284.79 6.60227 284.634 6.6804 284.392 6.75142C284.156 6.81771 283.881 6.87689 283.569 6.92898C283.261 6.97633 282.96 7.01894 282.667 7.05682C282.378 7.08996 282.143 7.11837 281.963 7.14205C281.528 7.19886 281.121 7.29119 280.742 7.41903C280.368 7.54214 280.065 7.72917 279.833 7.98011C279.605 8.22633 279.492 8.5625 279.492 8.98864C279.492 9.57102 279.707 10.0114 280.138 10.3097C280.574 10.6032 281.125 10.75 281.793 10.75ZM297.059 12V2.625H294.161C293.508 2.625 292.994 2.77652 292.62 3.07955C292.246 3.38258 292.059 3.79924 292.059 4.32955C292.059 4.85038 292.227 5.25994 292.563 5.55824C292.904 5.85653 293.371 6.00568 293.963 6.00568H297.485V7.56818H293.963C293.224 7.56818 292.587 7.43797 292.052 7.17756C291.517 6.91714 291.105 6.54545 290.816 6.0625C290.527 5.57481 290.383 4.99716 290.383 4.32955C290.383 3.6572 290.534 3.07955 290.838 2.59659C291.141 2.11364 291.574 1.74195 292.137 1.48153C292.705 1.22112 293.38 1.09091 294.161 1.09091H298.65V12H297.059ZM289.786 12L292.883 6.57386H294.701L291.605 12H289.786ZM91.8103 36V25.0909H96.2705C97.4447 25.0909 98.3775 25.3561 99.0688 25.8864C99.7601 26.4167 100.106 27.1174 100.106 27.9886C100.106 28.6515 99.9092 29.1652 99.5162 29.5298C99.1232 29.8897 98.619 30.1335 98.0034 30.2614C98.4059 30.3182 98.7965 30.4602 99.1753 30.6875C99.5588 30.9148 99.8761 31.2273 100.127 31.625C100.378 32.018 100.503 32.5009 100.503 33.0739C100.503 33.6326 100.361 34.1321 100.077 34.5724C99.7932 35.0128 99.386 35.3608 98.8557 35.6165C98.3254 35.8722 97.6909 36 96.9523 36H91.8103ZM93.4012 34.4659H96.9523C97.53 34.4659 97.9821 34.3286 98.3088 34.054C98.6355 33.7794 98.7989 33.4053 98.7989 32.9318C98.7989 32.3684 98.6355 31.9257 98.3088 31.6037C97.9821 31.277 97.53 31.1136 96.9523 31.1136H93.4012V34.4659ZM93.4012 29.6648H96.2705C96.7203 29.6648 97.1062 29.6032 97.4282 29.4801C97.7501 29.3523 97.9963 29.1723 98.1668 28.9403C98.342 28.7036 98.4296 28.4242 98.4296 28.1023C98.4296 27.643 98.2378 27.2831 97.8543 27.0227C97.4708 26.7576 96.9428 26.625 96.2705 26.625H93.4012V29.6648ZM108.515 36.2273C107.463 36.2273 106.557 35.9953 105.794 35.5312C105.037 35.0625 104.452 34.4091 104.04 33.571C103.633 32.7282 103.429 31.7481 103.429 30.6307C103.429 29.5133 103.633 28.5284 104.04 27.6761C104.452 26.8191 105.025 26.1515 105.759 25.6733C106.498 25.1903 107.359 24.9489 108.344 24.9489C108.912 24.9489 109.473 25.0436 110.027 25.233C110.581 25.4223 111.086 25.7301 111.54 26.1562C111.995 26.5777 112.357 27.1364 112.627 27.8324C112.897 28.5284 113.032 29.3854 113.032 30.4034V31.1136H104.623V29.6648H111.327C111.327 29.0492 111.204 28.5 110.958 28.017C110.716 27.5341 110.371 27.1529 109.921 26.8736C109.476 26.5942 108.95 26.4545 108.344 26.4545C107.677 26.4545 107.099 26.6203 106.611 26.9517C106.128 27.2784 105.757 27.7045 105.496 28.2301C105.236 28.7557 105.106 29.3191 105.106 29.9205V30.8864C105.106 31.7102 105.248 32.4086 105.532 32.9815C105.82 33.5497 106.221 33.983 106.732 34.2812C107.243 34.5748 107.838 34.7216 108.515 34.7216C108.955 34.7216 109.353 34.66 109.708 34.5369C110.068 34.4091 110.378 34.2197 110.638 33.9688C110.899 33.7131 111.1 33.3958 111.242 33.017L112.861 33.4716C112.691 34.0208 112.404 34.5038 112.002 34.9205C111.599 35.3324 111.102 35.6544 110.51 35.8864C109.918 36.1136 109.253 36.2273 108.515 36.2273ZM124.578 21L125.43 22.0227C125.099 22.3447 124.715 22.5696 124.28 22.6974C123.844 22.8253 123.352 22.9034 122.802 22.9318C122.253 22.9602 121.642 22.9886 120.97 23.017C120.212 23.0455 119.585 23.2301 119.088 23.571C118.591 23.9119 118.207 24.4044 117.937 25.0483C117.667 25.6922 117.495 26.483 117.419 27.4205H117.561C117.93 26.7386 118.442 26.2367 119.095 25.9148C119.748 25.5928 120.449 25.4318 121.197 25.4318C122.05 25.4318 122.817 25.6307 123.498 26.0284C124.18 26.4261 124.72 27.0156 125.118 27.7969C125.515 28.5781 125.714 29.5417 125.714 30.6875C125.714 31.8286 125.511 32.8134 125.104 33.642C124.701 34.4706 124.135 35.1098 123.406 35.5597C122.682 36.0047 121.832 36.2273 120.856 36.2273C119.881 36.2273 119.026 35.9976 118.292 35.5384C117.559 35.0743 116.988 34.3878 116.581 33.4787C116.174 32.5649 115.97 31.4356 115.97 30.0909V28.9261C115.97 26.4972 116.382 24.6553 117.206 23.4006C118.034 22.1458 119.28 21.4972 120.942 21.4545C121.529 21.4356 122.052 21.4309 122.511 21.4403C122.97 21.4498 123.371 21.4285 123.711 21.3764C124.052 21.3243 124.341 21.1989 124.578 21ZM120.856 34.7216C121.515 34.7216 122.08 34.5559 122.554 34.2244C123.032 33.893 123.399 33.4266 123.655 32.8253C123.91 32.2192 124.038 31.5066 124.038 30.6875C124.038 29.892 123.908 29.215 123.648 28.6562C123.392 28.0975 123.025 27.6714 122.547 27.3778C122.068 27.0843 121.496 26.9375 120.828 26.9375C120.34 26.9375 119.902 27.0204 119.514 27.1861C119.126 27.3518 118.794 27.5956 118.52 27.9176C118.245 28.2396 118.032 28.6326 117.881 29.0966C117.734 29.5606 117.656 30.0909 117.646 30.6875C117.646 31.9091 117.933 32.8868 118.506 33.6207C119.078 34.3546 119.862 34.7216 120.856 34.7216ZM135.428 28.983V30.5455H129.065V28.983H135.428ZM143.709 36.2273C142.687 36.2273 141.806 35.9858 141.067 35.5028C140.329 35.0199 139.76 34.3546 139.363 33.5071C138.965 32.6596 138.766 31.6913 138.766 30.6023C138.766 29.4943 138.97 28.5166 139.377 27.669C139.789 26.8168 140.362 26.1515 141.096 25.6733C141.834 25.1903 142.696 24.9489 143.681 24.9489C144.448 24.9489 145.139 25.0909 145.755 25.375C146.37 25.6591 146.875 26.0568 147.267 26.5682C147.66 27.0795 147.904 27.6761 147.999 28.358H146.323C146.195 27.8608 145.911 27.4205 145.471 27.0369C145.035 26.6487 144.448 26.4545 143.709 26.4545C143.056 26.4545 142.483 26.625 141.991 26.9659C141.503 27.3021 141.122 27.7779 140.847 28.3935C140.577 29.0043 140.442 29.7216 140.442 30.5455C140.442 31.3883 140.575 32.1222 140.84 32.7472C141.11 33.3722 141.489 33.8575 141.976 34.2031C142.469 34.5488 143.046 34.7216 143.709 34.7216C144.145 34.7216 144.54 34.6458 144.895 34.4943C145.25 34.3428 145.551 34.125 145.797 33.8409C146.044 33.5568 146.219 33.2159 146.323 32.8182H147.999C147.904 33.4621 147.67 34.0421 147.296 34.5582C146.927 35.0696 146.437 35.4768 145.826 35.7798C145.22 36.0781 144.514 36.2273 143.709 36.2273ZM150.49 26.6534V25.0909H159.354V26.6534H155.774V36H154.098V26.6534H150.49ZM163.778 40.0909C163.494 40.0909 163.241 40.0672 163.018 40.0199C162.796 39.9773 162.642 39.9347 162.557 39.892L162.983 38.4148C163.39 38.5189 163.75 38.5568 164.062 38.5284C164.375 38.5 164.652 38.3603 164.893 38.1094C165.139 37.8632 165.364 37.4631 165.568 36.9091L165.88 36.0568L161.846 25.0909H163.664L166.676 33.7841H166.789L169.801 25.0909H171.619L166.988 37.5909C166.78 38.1544 166.522 38.6207 166.214 38.9901C165.906 39.3641 165.549 39.6411 165.142 39.821C164.739 40.0009 164.285 40.0909 163.778 40.0909ZM172.649 39.125V34.4375H173.558C173.78 34.2055 173.972 33.9545 174.133 33.6847C174.294 33.4148 174.434 33.0952 174.552 32.7259C174.675 32.3518 174.779 31.8973 174.865 31.3622C174.95 30.8224 175.026 30.1714 175.092 29.4091L175.461 25.0909H182.393V34.4375H184.069V39.125H182.393V36H174.325V39.125H172.649ZM175.461 34.4375H180.717V26.6534H177.024L176.74 29.4091C176.621 30.5502 176.474 31.5469 176.299 32.3991C176.124 33.2514 175.845 33.9309 175.461 34.4375ZM188.87 33.5284L194.126 25.0909H196.057V36H194.381V27.5625L189.154 36H187.194V25.0909H188.87V33.5284ZM206.59 36V26.625H203.692C203.039 26.625 202.525 26.7765 202.151 27.0795C201.777 27.3826 201.59 27.7992 201.59 28.3295C201.59 28.8504 201.758 29.2599 202.094 29.5582C202.435 29.8565 202.901 30.0057 203.493 30.0057H207.016V31.5682H203.493C202.755 31.5682 202.118 31.438 201.583 31.1776C201.048 30.9171 200.636 30.5455 200.347 30.0625C200.058 29.5748 199.914 28.9972 199.914 28.3295C199.914 27.6572 200.065 27.0795 200.368 26.5966C200.671 26.1136 201.105 25.742 201.668 25.4815C202.236 25.2211 202.911 25.0909 203.692 25.0909H208.181V36H206.59ZM199.317 36L202.414 30.5739H204.232L201.135 36H199.317Z" fill="#ABBED8"/>
</svg>
