<svg width="354" height="34" viewBox="0 0 354 34" fill="none" xmlns="http://www.w3.org/2000/svg">
<path d="M361.325 14.7177C361.98 15.1607 362.448 15.6092 362.72 16.0623L362.291 16.3194C362.438 16.5652 362.5 16.79 362.5 17C362.5 17.21 362.438 17.4349 362.291 17.6806L362.72 17.9377C362.448 18.3909 361.98 18.8393 361.325 19.2823L361.045 18.868C360.592 19.1741 360.035 19.4831 359.373 19.7934L359.586 20.2461C359.042 20.5012 358.435 20.7542 357.767 21.0051L357.591 20.537C357.024 20.7499 356.41 20.9618 355.751 21.1725L355.903 21.6488C355.302 21.8411 354.664 22.032 353.99 22.2214L353.855 21.7401C353.248 21.9107 352.612 22.0802 351.946 22.2487L352.069 22.7334C351.459 22.8878 350.825 23.0411 350.168 23.1934L350.055 22.7063C349.422 22.853 348.766 22.9989 348.088 23.1438L348.193 23.6327C347.578 23.7641 346.946 23.8946 346.297 24.0242L346.199 23.5339C345.557 23.6619 344.899 23.789 344.223 23.9154L344.315 24.4069C343.692 24.5233 343.055 24.639 342.404 24.754L342.317 24.2616C341.668 24.3763 341.004 24.4902 340.327 24.6034L340.409 25.0966C339.784 25.2011 339.147 25.305 338.498 25.4082L338.419 24.9144C337.772 25.0172 337.114 25.1193 336.445 25.2208L336.52 25.7152C335.881 25.8119 335.233 25.908 334.574 26.0035L334.502 25.5087C333.861 25.6016 333.21 25.694 332.549 25.7857L332.618 26.281C331.964 26.3717 331.301 26.4619 330.629 26.5515L330.563 26.0559C329.928 26.1405 329.285 26.2246 328.634 26.3081L328.697 26.804C328.045 26.8876 327.385 26.9707 326.716 27.0532L326.655 26.557C326.008 26.6368 325.354 26.7161 324.692 26.7949L324.751 27.2914C324.108 27.368 323.458 27.444 322.801 27.5195L322.744 27.0228C322.087 27.0982 321.424 27.1732 320.754 27.2476L320.809 27.7445C320.164 27.8162 319.512 27.8874 318.854 27.9581L318.8 27.461C318.154 27.5304 317.502 27.5993 316.844 27.6678L316.896 28.1651C316.237 28.2336 315.573 28.3016 314.902 28.3691L314.852 27.8717C314.205 27.9368 313.553 28.0015 312.896 28.0657L312.944 28.5633C312.297 28.6266 311.644 28.6894 310.985 28.7518L310.938 28.254C310.281 28.3163 309.618 28.3782 308.95 28.4396L308.995 28.9375C308.344 28.9974 307.687 29.0569 307.026 29.1159L306.981 28.6179C306.334 28.6756 305.683 28.7329 305.027 28.7898L305.07 29.2879C304.414 29.3448 303.752 29.4013 303.087 29.4574L303.045 28.9592C302.387 29.0146 301.724 29.0696 301.057 29.1242L301.098 29.6225C300.452 29.6754 299.802 29.7279 299.148 29.7799L299.108 29.2815C298.455 29.3335 297.797 29.3852 297.135 29.4364L297.174 29.9349C296.512 29.9861 295.846 30.037 295.176 30.0874L295.138 29.5888C294.49 29.6376 293.837 29.686 293.181 29.7341L293.218 30.2327C292.567 30.2804 291.912 30.3277 291.254 30.3746L291.218 29.8759C290.56 29.9227 289.899 29.9692 289.234 30.0153L289.268 30.5141C288.608 30.5599 287.944 30.6052 287.277 30.6502L287.244 30.1514C286.596 30.195 285.945 30.2383 285.291 30.2812L285.324 30.7802C284.669 30.8231 284.012 30.8657 283.351 30.9079L283.319 30.4089C282.659 30.4511 281.995 30.4929 281.329 30.5343L281.36 31.0333C280.704 31.0741 280.044 31.1145 279.382 31.1545L279.352 30.6554C278.702 30.6947 278.049 30.7337 277.393 30.7723L277.422 31.2714C276.766 31.31 276.107 31.3483 275.445 31.3862L275.416 30.887C274.754 30.9248 274.09 30.9623 273.423 30.9995L273.451 31.4987C272.796 31.5351 272.139 31.5712 271.48 31.6069L271.453 31.1076C270.801 31.1429 270.146 31.1779 269.489 31.2124L269.516 31.7117C268.858 31.7463 268.199 31.7806 267.536 31.8145L267.511 31.3151C266.849 31.349 266.184 31.3826 265.517 31.4157L265.542 31.9151C264.888 31.9477 264.231 31.9799 263.571 32.0117L263.547 31.5123C262.895 31.5438 262.24 31.5751 261.583 31.6059L261.606 32.1054C260.949 32.1362 260.289 32.1668 259.627 32.1969L259.604 31.6975C258.942 31.7276 258.278 31.7575 257.612 31.7869L257.634 32.2864C256.978 32.3155 256.32 32.3442 255.659 32.3726L255.638 31.873C254.985 31.9011 254.33 31.9288 253.673 31.9561L253.694 32.4557C253.037 32.4831 252.377 32.5101 251.716 32.5368L251.696 32.0372C251.035 32.0639 250.372 32.0903 249.707 32.1163L249.726 32.6159C249.067 32.6417 248.406 32.6672 247.743 32.6923L247.724 32.1926C247.071 32.2174 246.417 32.2418 245.76 32.2659L245.779 32.7655C245.122 32.7896 244.464 32.8134 243.803 32.8368L243.786 32.3371C243.126 32.3605 242.464 32.3836 241.8 32.4064L241.817 32.9061C241.154 32.9288 240.49 32.9512 239.824 32.9733L239.807 32.4735C239.155 32.4951 238.501 32.5164 237.845 32.5374L237.861 33.0371C237.205 33.0581 236.548 33.0787 235.889 33.099L235.873 32.5993C235.214 32.6196 234.554 32.6396 233.892 32.6592L233.906 33.159C233.244 33.1787 232.58 33.198 231.914 33.217L231.9 32.7173C231.244 32.736 230.586 32.7544 229.927 32.7725L229.941 33.2723C229.286 33.2903 228.629 33.308 227.971 33.3254L227.958 32.8255C227.3 32.8429 226.641 32.8599 225.98 32.8766L225.993 33.3765C225.332 33.3932 224.67 33.4096 224.006 33.4257L223.994 32.9258C223.332 32.9418 222.67 32.9575 222.005 32.9729L222.017 33.4728C221.363 33.4879 220.707 33.5027 220.051 33.5172L220.04 33.0173C219.383 33.0318 218.725 33.046 218.066 33.0599L218.077 33.5598C217.417 33.5737 216.756 33.5873 216.094 33.6005L216.084 33.1006C215.423 33.1139 214.759 33.1268 214.095 33.1394L214.104 33.6393C213.446 33.6518 212.787 33.664 212.127 33.6758L212.118 33.1759C211.463 33.1877 210.806 33.1991 210.148 33.2103L210.157 33.7102C209.499 33.7213 208.84 33.7322 208.179 33.7427L208.171 33.2428C207.511 33.2533 206.85 33.2635 206.187 33.2734L206.194 33.7733C205.532 33.7832 204.868 33.7928 204.203 33.8021L204.196 33.3021C203.541 33.3112 202.884 33.32 202.227 33.3286L202.234 33.8285C201.577 33.837 200.919 33.8452 200.26 33.8531L200.254 33.3531C199.596 33.361 198.936 33.3686 198.275 33.3758L198.28 33.8758C197.619 33.8831 196.957 33.89 196.294 33.8966L196.289 33.3967C195.628 33.4033 194.966 33.4096 194.303 33.4156L194.307 33.9155C193.652 33.9215 192.995 33.9271 192.338 33.9324L192.334 33.4324C191.676 33.4377 191.018 33.4427 190.359 33.4474L190.362 33.9474C189.703 33.9521 189.043 33.9564 188.381 33.9605L188.378 33.4605C187.717 33.4646 187.055 33.4683 186.392 33.4718L186.394 33.9718C185.735 33.9752 185.074 33.9783 184.412 33.9811L184.41 33.4811C183.754 33.4839 183.097 33.4864 182.439 33.4886L182.44 33.9886C181.782 33.9907 181.124 33.9926 180.464 33.9942L180.463 33.4942C179.803 33.4957 179.143 33.497 178.481 33.4979L178.482 33.9979C177.821 33.9988 177.158 33.9995 176.495 33.9998L176.495 33.4998L175.5 33.5L174.505 33.4998L174.505 33.9998C173.842 33.9995 173.179 33.9988 172.518 33.9979L172.519 33.4979C171.857 33.497 171.197 33.4957 170.537 33.4942L170.536 33.9942C169.876 33.9926 169.218 33.9907 168.56 33.9886L168.561 33.4886C167.903 33.4864 167.246 33.4839 166.59 33.4811L166.588 33.9811C165.926 33.9783 165.265 33.9752 164.605 33.9718L164.608 33.4718C163.945 33.4683 163.283 33.4646 162.622 33.4605L162.619 33.9605C161.957 33.9564 161.297 33.9521 160.638 33.9474L160.641 33.4474C159.982 33.4427 159.324 33.4377 158.666 33.4324L158.662 33.9324C158.005 33.9271 157.348 33.9215 156.693 33.9155L156.697 33.4156C156.034 33.4096 155.372 33.4033 154.711 33.3967L154.706 33.8966C154.043 33.89 153.38 33.8831 152.719 33.8758L152.725 33.3758C152.064 33.3686 151.404 33.361 150.746 33.3531L150.74 33.8531C150.081 33.8452 149.423 33.837 148.766 33.8285L148.773 33.3286C148.116 33.32 147.459 33.3112 146.804 33.3021L146.797 33.8021C146.132 33.7928 145.468 33.7832 144.805 33.7733L144.813 33.2734C144.15 33.2635 143.489 33.2533 142.829 33.2428L142.821 33.7427C142.16 33.7322 141.501 33.7213 140.843 33.7102L140.852 33.2103C140.194 33.1991 139.537 33.1877 138.882 33.1759L138.873 33.6758C138.213 33.664 137.553 33.6518 136.896 33.6393L136.905 33.1394C136.241 33.1268 135.577 33.1138 134.916 33.1006L134.906 33.6005C134.244 33.5873 133.583 33.5737 132.923 33.5598L132.934 33.0599C132.275 33.046 131.617 33.0318 130.96 33.0173L130.949 33.5172C130.292 33.5027 129.637 33.4879 128.983 33.4727L128.995 32.9729C128.33 32.9575 127.668 32.9418 127.006 32.9258L126.994 33.4257C126.33 33.4096 125.668 33.3932 125.007 33.3765L125.02 32.8766C124.359 32.8599 123.7 32.8429 123.042 32.8255L123.029 33.3254C122.371 33.308 121.714 33.2903 121.059 33.2723L121.073 32.7725C120.414 32.7544 119.756 32.736 119.1 32.7173L119.086 33.217C118.42 33.198 117.756 33.1787 117.094 33.159L117.108 32.6592C116.446 32.6396 115.786 32.6196 115.127 32.5993L115.111 33.099C114.452 33.0787 113.795 33.0581 113.139 33.0371L113.155 32.5374C112.499 32.5164 111.845 32.4951 111.193 32.4735L111.176 32.9733C110.51 32.9512 109.846 32.9288 109.183 32.9061L109.2 32.4064C108.536 32.3836 107.874 32.3605 107.214 32.3371L107.196 32.8368C106.536 32.8134 105.878 32.7896 105.221 32.7655L105.239 32.2658C104.583 32.2418 103.929 32.2174 103.276 32.1926L103.257 32.6923C102.594 32.6672 101.933 32.6417 101.274 32.6159L101.293 32.1163C100.628 32.0903 99.9651 32.0639 99.3041 32.0372L99.2839 32.5368C98.6227 32.5101 97.9635 32.4831 97.3063 32.4557L97.3271 31.9561C96.6701 31.9288 96.0152 31.901 95.3623 31.873L95.3409 32.3726C94.6804 32.3442 94.0219 32.3155 93.3657 32.2864L93.3878 31.7869C92.7216 31.7575 92.0576 31.7276 91.3959 31.6975L91.3731 32.1969C90.7112 32.1668 90.0514 32.1362 89.394 32.1054L89.4174 31.6059C88.7602 31.575 88.1053 31.5438 87.4526 31.5123L87.4285 32.0117C86.7692 31.9799 86.1123 31.9477 85.4578 31.9151L85.4826 31.4157C84.8157 31.3825 84.1511 31.349 83.4891 31.3151L83.4636 31.8145C82.8013 31.7806 82.1416 31.7463 81.4844 31.7117L81.5107 31.2124C80.8537 31.1778 80.1992 31.1429 79.5474 31.1076L79.5204 31.6069C78.8607 31.5712 78.2037 31.5351 77.5494 31.4987L77.5772 30.9995C76.91 30.9623 76.2455 30.9248 75.5839 30.887L75.5553 31.3862C74.8934 31.3483 74.2342 31.31 73.578 31.2714L73.6073 30.7723C72.9513 30.7337 72.2981 30.6947 71.6478 30.6554L71.6176 31.1545C70.9555 31.1145 70.2964 31.0741 69.6403 31.0333L69.6713 30.5343C69.0047 30.4929 68.3411 30.4511 67.6807 30.4089L67.6489 30.9079C66.9882 30.8657 66.3306 30.8231 65.6762 30.7802L65.709 30.2812C65.0549 30.2383 64.404 30.195 63.7563 30.1513L63.7227 30.6502C63.0555 30.6052 62.3918 30.5599 61.7316 30.5141L61.7662 30.0153C61.1012 29.9692 60.4397 29.9227 59.7818 29.8759L59.7463 30.3746C59.0881 30.3277 58.4334 30.2804 57.7823 30.2327L57.8188 29.7341C57.1627 29.686 56.5102 29.6376 55.8615 29.5888L55.824 30.0874C55.154 30.0369 54.488 29.9861 53.826 29.9349L53.8646 29.4364C53.203 29.3852 52.5453 29.3335 51.8917 29.2815L51.852 29.7799C51.198 29.7279 50.548 29.6754 49.9022 29.6225L49.9429 29.1242C49.2759 29.0696 48.6133 29.0146 47.955 28.9592L47.913 29.4574C47.2475 29.4013 46.5865 29.3448 45.93 29.2879L45.9732 28.7898C45.3171 28.7329 44.6656 28.6756 44.0188 28.6179L43.9743 29.1159C43.3129 29.0569 42.6563 28.9974 42.0045 28.9375L42.0503 28.4396C41.3823 28.3782 40.7194 28.3163 40.0617 28.254L40.0145 28.7518C39.3563 28.6894 38.7034 28.6266 38.0556 28.5633L38.1042 28.0657C37.4467 28.0015 36.7945 27.9368 36.1479 27.8717L36.0978 28.3691C35.4273 28.3016 34.7628 28.2336 34.1042 28.1651L34.1559 27.6678C33.4978 27.5993 32.8458 27.5304 32.1997 27.461L32.1463 27.9581C31.4882 27.8874 30.8363 27.8162 30.1907 27.7445L30.2459 27.2476C29.5758 27.1732 28.9125 27.0982 28.2562 27.0228L28.1991 27.5195C27.5421 27.444 26.892 27.368 26.2489 27.2914L26.308 26.7949C25.6461 26.7161 24.9917 26.6368 24.3448 26.557L24.2836 27.0532C23.6153 26.9707 22.955 26.8876 22.3028 26.804L22.3664 26.3081C21.715 26.2246 21.0717 26.1405 20.4367 26.0559L20.3707 26.5515C19.6985 26.4619 19.0356 26.3717 18.3819 26.281L18.4507 25.7857C17.7901 25.694 17.139 25.6016 16.4977 25.5087L16.426 26.0035C15.7672 25.908 15.1186 25.8119 14.4803 25.7152L14.5553 25.2208C13.8857 25.1193 13.2275 25.0172 12.5809 24.9144L12.5024 25.4082C11.8535 25.305 11.2161 25.2011 10.5905 25.0966L10.6729 24.6034C9.99549 24.4902 9.33199 24.3763 8.68257 24.2616L8.59562 24.754C7.94462 24.639 7.30765 24.5233 6.6849 24.4069L6.77681 23.9154C6.10129 23.789 5.44271 23.6619 4.80133 23.5339L4.70347 24.0242C4.05393 23.8946 3.42181 23.7641 2.80738 23.6327L2.9119 23.1438C2.23415 22.9989 1.57828 22.853 0.944648 22.7063L0.831805 23.1934C0.174557 23.0411 -0.459172 22.8878 -1.06898 22.7334L-0.94628 22.2487C-1.61178 22.0802 -2.24807 21.9107 -2.85467 21.7401L-2.99003 22.2214C-3.66366 22.032 -4.30162 21.8411 -4.9032 21.6488L-4.75097 21.1725C-5.41027 20.9618 -6.02382 20.7499 -6.59094 20.537L-6.76668 21.0051C-7.43491 20.7542 -8.04178 20.5012 -8.58574 20.2461L-8.37346 19.7934C-9.03523 19.4831 -9.59193 19.1741 -10.0449 18.868L-10.3248 19.2823C-10.9805 18.8393 -11.4479 18.3908 -11.7196 17.9377L-11.2908 17.6806C-11.4381 17.4348 -11.5 17.21 -11.5 17C-11.5 16.79 -11.4381 16.5651 -11.2908 16.3194L-11.7196 16.0623C-11.4479 15.6091 -10.9804 15.1607 -10.3248 14.7177L-10.0449 15.132C-9.59191 14.8259 -9.03521 14.5169 -8.37344 14.2066L-8.58572 13.7539C-8.04175 13.4988 -7.43489 13.2458 -6.76665 12.9949L-6.59091 13.463C-6.0238 13.2501 -5.41025 13.0382 -4.75096 12.8275L-4.90318 12.3512C-4.30161 12.1589 -3.66364 11.968 -2.99001 11.7786L-2.85465 12.2599C-2.24806 12.0893 -1.61177 11.9198 -0.946263 11.7513L-1.06896 11.2666C-0.459154 11.1122 0.174575 10.9589 0.831823 10.8066L0.944666 11.2937C1.5783 11.147 2.23417 11.0011 2.91192 10.8562L2.8074 10.3673C3.42183 10.2359 4.05395 10.1054 4.7035 9.9758L4.80135 10.4661C5.44273 10.3381 6.10131 10.211 6.77683 10.0846L6.68492 9.59315C7.30767 9.47668 7.94464 9.36096 8.59564 9.24601L8.68259 9.73839C9.33201 9.62371 9.99551 9.50977 10.6729 9.39659L10.5905 8.90343C11.2161 8.7989 11.8535 8.69503 12.5024 8.59184L12.5809 9.08564C13.2275 8.98282 13.8857 8.88066 14.5553 8.77919L14.4804 8.28483C15.1186 8.1881 15.7672 8.09199 16.426 7.99651L16.4977 8.49134C17.139 8.39839 17.7901 8.30603 18.4507 8.21429L18.3819 7.71904C19.0356 7.62826 19.6985 7.53808 20.3707 7.44852L20.4367 7.94414C21.0717 7.85952 21.715 7.77545 22.3664 7.69193L22.3028 7.19599C22.955 7.11236 23.6153 7.0293 24.2836 6.9468L24.3449 7.44303C24.9917 7.36318 25.6462 7.28386 26.308 7.20508L26.2489 6.70858C26.892 6.63203 27.5421 6.55599 28.1991 6.48047L28.2562 6.9772C28.9125 6.90175 29.5758 6.82682 30.2459 6.75241L30.1907 6.25547C30.8363 6.18378 31.4882 6.11259 32.1463 6.04189L32.1997 6.53902C32.8458 6.46962 33.4979 6.40069 34.1559 6.33224L34.1042 5.83492C34.7628 5.76642 35.4274 5.69839 36.0978 5.63086L36.1479 6.12834C36.7945 6.06321 37.4467 5.99853 38.1042 5.93431L38.0556 5.43668C38.7034 5.37341 39.3564 5.3106 40.0145 5.24824L40.0617 5.74601C40.7194 5.6837 41.3823 5.62183 42.0503 5.56043L42.0046 5.06253C42.6563 5.00262 43.3129 4.94315 43.9743 4.88412L44.0188 5.38214C44.6657 5.3244 45.3172 5.26709 45.9732 5.21021L45.93 4.71208C46.5865 4.65516 47.2475 4.59867 47.9131 4.54261L47.955 5.04085C48.6133 4.9854 49.2759 4.93038 49.943 4.87578L49.9022 4.37745C50.5481 4.32459 51.198 4.27212 51.852 4.22007L51.8917 4.71849C52.5453 4.66646 53.203 4.61484 53.8646 4.56363L53.8261 4.06512C54.4881 4.01388 55.1541 3.96305 55.824 3.91264L55.8615 4.41123C56.5103 4.3624 57.1627 4.31397 57.8189 4.26593L57.7823 3.76726C58.4334 3.71959 59.0881 3.6723 59.7463 3.62541L59.7819 4.12414C60.4398 4.07727 61.1012 4.03079 61.7662 3.9847L61.7316 3.4859C62.3919 3.44014 63.0556 3.39476 63.7227 3.34978L63.7563 3.84865C64.404 3.80498 65.0549 3.76168 65.709 3.71875L65.6762 3.21983C66.3306 3.17688 66.9882 3.13431 67.6489 3.09211L67.6807 3.5911C68.3412 3.54892 69.0047 3.50712 69.6714 3.4657L69.6404 2.96666C70.2965 2.9259 70.9556 2.88551 71.6176 2.84548L71.6478 3.34457C72.2981 3.30526 72.9513 3.2663 73.6073 3.22771L73.578 2.72857C74.2343 2.68997 74.8934 2.65172 75.5553 2.61384L75.5839 3.11302C76.2455 3.07515 76.91 3.03765 77.5772 3.00052L77.5494 2.50129C78.2038 2.46488 78.8608 2.42881 79.5204 2.39311L79.5474 2.89237C80.1993 2.85709 80.8537 2.82215 81.5107 2.78756L81.4844 2.28825C82.1416 2.25365 82.8014 2.21941 83.4636 2.18551L83.4892 2.68486C84.1512 2.65098 84.8157 2.61745 85.4827 2.58428L85.4578 2.0849C86.1124 2.05234 86.7693 2.02014 87.4285 1.98828L87.4527 2.48769C88.1053 2.45615 88.7603 2.42495 89.4175 2.39409L89.394 1.89464C90.0515 1.86377 90.7112 1.83324 91.3731 1.80306L91.3959 2.30254C92.0576 2.27237 92.7216 2.24254 93.3878 2.21306L93.3657 1.71355C94.022 1.68451 94.6804 1.65581 95.3409 1.62744L95.3624 2.12698C96.0152 2.09895 96.6701 2.07125 97.3271 2.04388L97.3063 1.54431C97.9635 1.51694 98.6227 1.48989 99.284 1.46319L99.3041 1.96278C99.9652 1.93609 100.628 1.90973 101.293 1.8837L101.274 1.38409C101.933 1.3583 102.594 1.33284 103.257 1.30772L103.276 1.80736C103.929 1.78263 104.583 1.75823 105.24 1.73415L105.221 1.23449C105.878 1.2104 106.536 1.18665 107.196 1.16322L107.214 1.66291C107.874 1.63948 108.536 1.61639 109.2 1.59364L109.183 1.09393C109.846 1.0712 110.51 1.0488 111.176 1.02674L111.193 1.52647C111.845 1.50487 112.499 1.48359 113.155 1.46263L113.139 0.962888C113.795 0.941925 114.452 0.921283 115.111 0.900965L115.127 1.40073C115.786 1.38041 116.446 1.36043 117.108 1.34076L117.094 0.840982C117.756 0.821312 118.42 0.801968 119.086 0.782951L119.1 1.28275C119.756 1.264 120.414 1.24557 121.073 1.22746L121.059 0.727652C121.714 0.709664 122.371 0.691992 123.029 0.674639L123.042 1.17446C123.7 1.15712 124.359 1.14008 125.02 1.12337L125.007 0.623534C125.668 0.606818 126.33 0.590423 126.994 0.574349L127.006 1.0742C127.668 1.05819 128.33 1.04249 128.995 1.02712L128.983 0.52725C129.637 0.512114 130.293 0.49729 130.949 0.48278L130.96 0.982658C131.617 0.968151 132.275 0.953958 132.934 0.94008L132.923 0.440191C133.583 0.426309 134.244 0.412743 134.906 0.399494L134.916 0.899394C135.577 0.886148 136.241 0.87322 136.905 0.860611L136.896 0.360701C137.554 0.348219 138.213 0.336049 138.873 0.324193L138.882 0.824113C139.537 0.812346 140.194 0.800889 140.852 0.789743L140.843 0.289815C141.501 0.278666 142.16 0.267829 142.821 0.257306L142.829 0.757242C143.489 0.746721 144.15 0.736514 144.813 0.726621L144.806 0.226677C145.468 0.216782 146.132 0.207202 146.797 0.197939L146.804 0.69789C147.459 0.688766 148.116 0.679949 148.773 0.671442L148.766 0.171484C149.423 0.162984 150.081 0.154794 150.74 0.146913L150.746 0.646877C151.404 0.638998 152.064 0.63143 152.725 0.624173L152.72 0.124203C153.381 0.116944 154.043 0.109997 154.706 0.103364L154.711 0.603339C155.372 0.596725 156.034 0.590423 156.697 0.584434L156.693 0.0844543C157.348 0.078535 158.005 0.0729219 158.662 0.0676164L158.666 0.5676C159.324 0.562296 159.982 0.557299 160.641 0.552612L160.638 0.0526247C161.297 0.0479362 161.957 0.043557 162.619 0.0394888L162.622 0.539479C163.283 0.535412 163.945 0.531656 164.608 0.528212L164.606 0.0282183C165.265 0.0247904 165.926 0.0216719 166.588 0.0188644L166.59 0.51886C167.246 0.516076 167.903 0.513598 168.561 0.511428L168.56 0.0114306C169.218 0.00925964 169.876 0.00739611 170.536 0.00584157L170.537 0.50584C171.197 0.504286 171.857 0.503041 172.519 0.502106L172.518 0.00210642C173.179 0.00117139 173.842 0.000546879 174.505 0.000234431L174.505 0.500234L175.5 0.5L176.495 0.500234L176.495 0.000234449C177.158 0.000546906 177.821 0.00117142 178.482 0.00210646L178.481 0.502106C179.143 0.503041 179.803 0.504286 180.463 0.50584L180.464 0.00584164C181.124 0.00739619 181.782 0.00925973 182.44 0.0114307L182.439 0.511428C183.097 0.513598 183.754 0.516076 184.41 0.51886L184.412 0.0188645C185.074 0.021672 185.735 0.0247905 186.395 0.0282185L186.392 0.528212C187.055 0.531656 187.717 0.535412 188.378 0.539479L188.381 0.0394889C189.043 0.0435572 189.703 0.0479363 190.362 0.0526248L190.359 0.552612C191.018 0.557299 191.676 0.562296 192.334 0.5676L192.338 0.0676165C192.995 0.072922 193.652 0.0785351 194.307 0.0844544L194.303 0.584434C194.966 0.590423 195.628 0.596725 196.289 0.603339L196.294 0.103364C196.957 0.109997 197.62 0.116944 198.281 0.124203L198.275 0.624173C198.936 0.63143 199.596 0.638999 200.254 0.646877L200.26 0.146913C200.919 0.154794 201.577 0.162985 202.234 0.171484L202.227 0.671442C202.884 0.67995 203.541 0.688767 204.196 0.697891L204.203 0.197939C204.868 0.207202 205.532 0.216782 206.195 0.226677L206.187 0.726622C206.85 0.736514 207.511 0.746722 208.171 0.757243L208.179 0.257306C208.84 0.26783 209.499 0.278667 210.157 0.289815L210.148 0.789743C210.806 0.800889 211.463 0.812346 212.118 0.824113L212.127 0.324194C212.787 0.336049 213.447 0.348219 214.104 0.360701L214.095 0.860611C214.759 0.873221 215.423 0.886149 216.084 0.899394L216.094 0.399494C216.756 0.412743 217.417 0.426309 218.077 0.440191L218.066 0.94008C218.725 0.953958 219.383 0.968152 220.04 0.982658L220.051 0.48278C220.708 0.497291 221.363 0.512115 222.017 0.527251L222.005 1.02712C222.67 1.04249 223.332 1.05819 223.994 1.0742L224.006 0.574349C224.67 0.590423 225.332 0.606819 225.993 0.623535L225.98 1.12337C226.641 1.14009 227.3 1.15712 227.958 1.17447L227.971 0.674639C228.629 0.691993 229.286 0.709665 229.941 0.727653L229.927 1.22746C230.586 1.24557 231.244 1.264 231.9 1.28275L231.914 0.782952C232.58 0.801968 233.244 0.821312 233.906 0.840982L233.892 1.34076C234.554 1.36043 235.214 1.38042 235.873 1.40073L235.889 0.900965C236.548 0.921284 237.205 0.941926 237.861 0.962889L237.845 1.46263C238.501 1.48359 239.155 1.50487 239.807 1.52647L239.824 1.02674C240.49 1.0488 241.154 1.0712 241.817 1.09393L241.8 1.59364C242.464 1.61639 243.126 1.63949 243.786 1.66291L243.804 1.16322C244.464 1.18665 245.122 1.2104 245.779 1.23449L245.76 1.73415C246.417 1.75823 247.071 1.78263 247.724 1.80736L247.743 1.30772C248.406 1.33284 249.067 1.3583 249.726 1.38409L249.707 1.88371C250.372 1.90973 251.035 1.93609 251.696 1.96278L251.716 1.46319C252.377 1.4899 253.037 1.51694 253.694 1.54431L253.673 2.04388C254.33 2.07125 254.985 2.09895 255.638 2.12698L255.659 1.62744C256.32 1.65581 256.978 1.68451 257.634 1.71355L257.612 2.21306C258.278 2.24254 258.942 2.27237 259.604 2.30254L259.627 1.80306C260.289 1.83324 260.949 1.86377 261.606 1.89464L261.583 2.39409C262.24 2.42495 262.895 2.45615 263.547 2.48769L263.572 1.98828C264.231 2.02014 264.888 2.05235 265.542 2.0849L265.517 2.58428C266.184 2.61745 266.849 2.65098 267.511 2.68486L267.536 2.18551C268.199 2.21941 268.858 2.25365 269.516 2.28825L269.489 2.78756C270.146 2.82215 270.801 2.85709 271.453 2.89238L271.48 2.39311C272.139 2.42881 272.796 2.46488 273.451 2.50129L273.423 3.00052C274.09 3.03765 274.754 3.07516 275.416 3.11302L275.445 2.61384C276.107 2.65172 276.766 2.68997 277.422 2.72858L277.393 3.22771C278.049 3.26631 278.702 3.30526 279.352 3.34457L279.382 2.84548C280.044 2.88551 280.704 2.9259 281.36 2.96667L281.329 3.4657C281.995 3.50712 282.659 3.54892 283.319 3.5911L283.351 3.09212C284.012 3.13431 284.669 3.17688 285.324 3.21983L285.291 3.71876C285.945 3.76168 286.596 3.80498 287.244 3.84865L287.277 3.34978C287.944 3.39476 288.608 3.44014 289.268 3.4859L289.234 3.9847C289.899 4.03079 290.56 4.07727 291.218 4.12415L291.254 3.62541C291.912 3.6723 292.567 3.71959 293.218 3.76726L293.181 4.26593C293.837 4.31397 294.49 4.3624 295.139 4.41123L295.176 3.91264C295.846 3.96305 296.512 4.01388 297.174 4.06512L297.135 4.56363C297.797 4.61484 298.455 4.66647 299.108 4.71849L299.148 4.22007C299.802 4.27212 300.452 4.32459 301.098 4.37745L301.057 4.87579C301.724 4.93038 302.387 4.9854 303.045 5.04085L303.087 4.54261C303.753 4.59867 304.414 4.65516 305.07 4.71208L305.027 5.21021C305.683 5.2671 306.334 5.32441 306.981 5.38214L307.026 4.88412C307.687 4.94315 308.344 5.00262 308.995 5.06253L308.95 5.56043C309.618 5.62183 310.281 5.6837 310.938 5.74601L310.985 5.24824C311.644 5.3106 312.297 5.37342 312.944 5.43668L312.896 5.93431C313.553 5.99853 314.205 6.06321 314.852 6.12835L314.902 5.63086C315.573 5.6984 316.237 5.76642 316.896 5.83493L316.844 6.33224C317.502 6.40069 318.154 6.46962 318.8 6.53903L318.854 6.04189C319.512 6.11259 320.164 6.18379 320.809 6.25547L320.754 6.75242C321.424 6.82683 322.087 6.90176 322.744 6.9772L322.801 6.48048C323.458 6.556 324.108 6.63204 324.751 6.70858L324.692 7.20508C325.354 7.28386 326.008 7.36319 326.655 7.44304L326.716 6.9468C327.385 7.0293 328.045 7.11236 328.697 7.19599L328.634 7.69193C329.285 7.77545 329.928 7.85952 330.563 7.94414L330.629 7.44852C331.301 7.53808 331.964 7.62826 332.618 7.71904L332.549 8.21429C333.21 8.30604 333.861 8.39839 334.502 8.49135L334.574 7.99651C335.233 8.09199 335.881 8.1881 336.52 8.28483L336.445 8.77919C337.114 8.88067 337.772 8.98282 338.419 9.08564L338.498 8.59185C339.147 8.69504 339.784 8.7989 340.41 8.90343L340.327 9.39659C341.005 9.50977 341.668 9.62371 342.317 9.73839L342.404 9.24601C343.055 9.36097 343.692 9.47669 344.315 9.59315L344.223 10.0846C344.899 10.211 345.557 10.3381 346.199 10.4661L346.297 9.9758C346.946 10.1054 347.578 10.2359 348.193 10.3673L348.088 10.8562C348.766 11.0011 349.422 11.147 350.055 11.2937L350.168 10.8066C350.825 10.9589 351.459 11.1122 352.069 11.2666L351.946 11.7513C352.612 11.9198 353.248 12.0893 353.855 12.2599L353.99 11.7786C354.664 11.968 355.302 12.1589 355.903 12.3512L355.751 12.8275C356.41 13.0382 357.024 13.2501 357.591 13.463L357.767 12.9949C358.435 13.2458 359.042 13.4988 359.586 13.7539L359.373 14.2066C360.035 14.5169 360.592 14.8259 361.045 15.132L361.325 14.7177Z" stroke="url(#paint0_linear_1509_51593)" stroke-dasharray="2 2"/>
<defs>
<linearGradient id="paint0_linear_1509_51593" x1="175.5" y1="0" x2="175.5" y2="25.789" gradientUnits="userSpaceOnUse">
<stop stop-color="#B7BDCE"/>
<stop offset="1" stop-color="#B7BDCE" stop-opacity="0"/>
</linearGradient>
</defs>
</svg>
