<svg width="24" height="25" viewBox="0 0 24 25" fill="none" xmlns="http://www.w3.org/2000/svg">
<path fill-rule="evenodd" clip-rule="evenodd" d="M11 4.5C7.13401 4.5 4 7.63401 4 11.5C4 15.366 7.13401 18.5 11 18.5C12.9333 18.5 14.6819 17.7176 15.9497 16.4497C17.2176 15.1819 18 13.4333 18 11.5C18 7.63401 14.866 4.5 11 4.5ZM2 11.5C2 6.52944 6.02944 2.5 11 2.5C15.9706 2.5 20 6.52944 20 11.5C20 13.6246 19.2628 15.5784 18.0319 17.1176L21.7071 20.7929C22.0976 21.1834 22.0976 21.8166 21.7071 22.2071C21.3166 22.5976 20.6834 22.5976 20.2929 22.2071L16.6176 18.5319C15.0784 19.7628 13.1246 20.5 11 20.5C6.02944 20.5 2 16.4706 2 11.5Z" fill="#444444"/>
</svg>
