<svg width="23" height="23" viewBox="0 0 23 23" fill="none" xmlns="http://www.w3.org/2000/svg">
<path d="M8.4864 6.4864C8.87693 6.09588 8.87693 5.46271 8.4864 5.07219C8.09588 4.68167 7.46271 4.68167 7.07219 5.07219L8.4864 6.4864ZM4.7793 8.7793L4.07219 8.07219C3.68167 8.46271 3.68167 9.09588 4.07219 9.4864L4.7793 8.7793ZM7.07219 12.4864C7.46271 12.8769 8.09588 12.8769 8.4864 12.4864C8.87693 12.0959 8.87693 11.4627 8.4864 11.0722L7.07219 12.4864ZM4.7793 15.7793C4.22701 15.7793 3.7793 16.227 3.7793 16.7793C3.7793 17.3316 4.22701 17.7793 4.7793 17.7793V15.7793ZM7.07219 5.07219L4.07219 8.07219L5.4864 9.4864L8.4864 6.4864L7.07219 5.07219ZM4.07219 9.4864L7.07219 12.4864L8.4864 11.0722L5.4864 8.07219L4.07219 9.4864ZM4.7793 9.7793H15.7793V7.7793H4.7793V9.7793ZM18.7793 12.7793C18.7793 14.4362 17.4362 15.7793 15.7793 15.7793V17.7793C18.5407 17.7793 20.7793 15.5407 20.7793 12.7793H18.7793ZM15.7793 9.7793C17.4362 9.7793 18.7793 11.1224 18.7793 12.7793H20.7793C20.7793 10.0179 18.5407 7.7793 15.7793 7.7793V9.7793ZM4.7793 17.7793H15.7793V15.7793H4.7793V17.7793Z" fill="#B7BDCE"/>
</svg>
